<svg width="17" height="20" xmlns="http://www.w3.org/2000/svg"><path d="M12.228 19.575c.62 0 1.12-.18 1.498-.54.378-.36.582-.854.61-1.481l.572-12.024h.95a.677.677 0 0 0 .492-.197.666.666 0 0 0 .202-.497.645.645 0 0 0-.202-.48.677.677 0 0 0-.493-.197l-3.735.001V2.902c0-.62-.189-1.107-.567-1.459-.378-.351-.904-.527-1.577-.527H6.822c-.668 0-1.19.176-1.569.527-.378.352-.566.838-.566 1.46L4.686 4.16H.96a.667.667 0 0 0-.483.197.645.645 0 0 0-.203.479c0 .2.068.365.203.497a.667.667 0 0 0 .483.197h.95l.57 12.032c.03.622.233 1.112.611 1.473.378.36.88.54 1.508.54h7.629zM10.67 4.16H6.136V2.981a.7.7 0 0 1 .216-.536.8.8 0 0 1 .567-.202H9.88c.24 0 .432.068.576.202a.7.7 0 0 1 .215.536L10.67 4.16zm1.398 14.035h-7.32a.796.796 0 0 1-.593-.237.883.883 0 0 1-.25-.598L3.341 5.53h10.116l-.545 11.83a.887.887 0 0 1-.246.602.8.8 0 0 1-.598.233zm-6.117-1.38c.17 0 .305-.048.404-.145a.482.482 0 0 0 .141-.382L6.242 7.5a.487.487 0 0 0-.154-.378.545.545 0 0 0-.382-.14.571.571 0 0 0-.409.144.475.475 0 0 0-.145.383l.246 8.78a.533.533 0 0 0 .159.387c.1.094.231.14.395.14zm2.461 0a.575.575 0 0 0 .404-.145.484.484 0 0 0 .159-.373v-8.79a.494.494 0 0 0-.159-.382.575.575 0 0 0-.404-.145.571.571 0 0 0-.409.145.501.501 0 0 0-.153.383v8.789a.49.49 0 0 0 .153.373.571.571 0 0 0 .41.145zm2.452 0a.554.554 0 0 0 .396-.14c.1-.094.152-.22.158-.378l.246-8.79a.452.452 0 0 0-.136-.382.571.571 0 0 0-.409-.145.545.545 0 0 0-.382.141.525.525 0 0 0-.163.387l-.246 8.78a.458.458 0 0 0 .132.382c.1.097.234.145.404.145z" fill="#EF4444"/></svg>